Results
version=1
nRows=22
nColumns=24
inDegrees=yes
endheader
time	pelvis_tilt	pelvis_list	pelvis_rotation	pelvis_tx	pelvis_ty	pelvis_tz	hip_flexion_r	hip_adduction_r	hip_rotation_r	knee_angle_r	ankle_angle_r	subtalar_angle_r	mtp_angle_r	hip_flexion_l	hip_adduction_l	hip_rotation_l	knee_angle_l	ankle_angle_l	subtalar_angle_l	mtp_angle_l	lumbar_extension	lumbar_bending	lumbar_rotation
      1.47566667	     -4.65485540	     -5.37800178	    -11.96955843	      0.93359789	      0.97939842	      0.31282436	    -12.62716870	      7.99820517	      8.20339816	    -13.63723161	     16.92957374	      1.47697393	     10.09841869	     34.66089324	     -9.60831326	    -11.58854229	     -0.64021695	     10.44154824	     -0.58124468	      3.75934493	      3.41418688	      4.77561575	     12.48779923
      1.47983333	     -4.73181119	     -5.28880000	    -12.10432943	      0.93982209	      0.97860283	      0.31268420	    -12.82937890	      7.80730967	      8.30607067	    -13.75582931	     16.68973533	      1.41413908	     10.16681205	     34.72763915	     -9.58176286	    -11.01597626	     -1.26569525	     10.62348900	     -1.15830713	      3.80240430	      3.61324453	      4.70723976	     12.64699246
      1.48400000	     -4.79516578	     -5.19606884	    -12.20935599	      0.94612186	      0.97782648	      0.31248064	    -13.04554934	      7.61114756	      8.36964797	    -13.87110559	     16.44652799	      1.35368491	     10.23691228	     34.77493831	     -9.52556908	    -10.45129994	     -1.88604300	     10.79494292	     -1.67938979	      3.84549630	      3.81982379	      4.63484603	     12.81323036
      1.48816667	     -4.88408616	     -5.08189177	    -12.35388645	      0.95246254	      0.97706221	      0.31230530	    -13.20830935	      7.39087685	      8.47102575	    -14.03482791	     16.16928195	      1.28280115	     10.33150133	     34.81308999	     -9.46306267	     -9.91083178	     -2.46339386	     10.89172008	     -2.30849332	      3.89331326	      4.05425361	      4.54404871	     12.98724069
      1.49233333	     -4.96854930	     -4.96668783	    -12.49832554	      0.95884613	      0.97632969	      0.31211064	    -13.36192001	      7.16673695	      8.56420943	    -14.22459588	     15.87125440	      1.21359282	     10.45646242	     34.82418252	     -9.38975172	     -9.38709035	     -3.00047000	     10.91382531	     -2.95843489	      3.94818668	      4.29392372	      4.45106034	     13.15870521
      1.49650000	     -5.06152949	     -4.84029737	    -12.66831141	      0.96526584	      0.97562522	      0.31191522	    -13.48257683	      6.92623601	      8.67676410	    -14.45849231	     15.56240832	      1.15321809	     10.64494681	     34.82541138	     -9.31347379	     -8.92385045	     -3.51586243	     10.87103040	     -3.62818299	      4.03292487	      4.52985565	      4.37386140	     13.31268369
      1.50066667	     -5.15150528	     -4.70569609	    -12.80982174	      0.97174612	      0.97493594	      0.31167253	    -13.59692665	      6.68085553	      8.74525855	    -14.70316012	     15.23066094	      1.10276914	     10.85210051	     34.81894546	     -9.20983674	     -8.51456936	     -4.01399602	     10.80839562	     -4.17486888	      4.12485570	      4.78402502	      4.27312384	     13.47618032
      1.50483333	     -5.23997741	     -4.55048965	    -12.93332278	      0.97832246	      0.97426837	      0.31139448	    -13.70719329	      6.41420706	      8.78451710	    -14.94856488	     14.87605667	      1.06710918	     11.02568734	     34.80297445	     -9.07260483	     -8.16356137	     -4.48475112	     10.68051401	     -4.65962125	      4.20709532	      5.06481050	      4.13128352	     13.62856643
      1.50900000	     -5.33126063	     -4.40033227	    -13.09477733	      0.98490172	      0.97364658	      0.31111841	    -13.77485440	      6.14051949	      8.81722040	    -15.26623026	     14.46397374	      1.07125062	     13.31294673	     34.76213458	     -8.95230971	     -7.84192660	     -4.91327512	     10.45011355	     -5.26688382	      5.32926005	      5.32129039	      4.04375160	     13.66772700
      1.51316667	     -5.41411937	     -4.23122814	    -13.22990115	      0.99151259	      0.97305865	      0.31083224	    -13.85014237	      5.85974026	      8.88101970	    -15.57956614	     14.08121099	      0.99395057	     13.35008830	     34.72361336	     -8.80555564	     -7.65563663	     -5.34304177	     10.19804677	     -5.59802632	      5.35482685	      5.58896594	      3.88709984	     13.90003569
      1.51733333	     -5.51255538	     -4.05875692	    -13.38794203	      0.99818042	      0.97248919	      0.31053044	    -13.87633641	      5.56884442	      8.91790009	    -15.95219271	     13.66600632	      0.95276322	     13.44608952	     34.67195385	     -8.65811230	     -7.44480349	     -5.71422707	      9.84579265	     -6.14586847	      5.41547333	      5.88092862	      3.78346678	     14.06901580
      1.52150000	     -5.59125351	     -3.88172364	    -13.51391383	      1.00486900	      0.97196667	      0.31017431	    -13.91171417	      5.27533304	      8.92345332	    -16.33799984	     13.22634208	      0.94027523	     13.61416694	     34.60231405	     -8.48510100	     -7.27746363	     -6.06290719	      9.40459718	     -6.60943465	      5.52197587	      6.15033342	      3.64533612	     14.19488182
      1.52566667	     -5.68321039	     -3.68236460	    -13.64086345	      1.01160595	      0.97146115	      0.30982332	    -13.90577291	      4.96386609	      8.91353359	    -16.76454178	     12.77529655	      0.90927155	     13.80437741	     34.54590109	     -8.29582541	     -7.18310014	     -6.40384672	      8.89731940	     -7.02052921	      5.64066237	      6.45433407	      3.48208009	     14.31228840
      1.52983333	     -5.76581984	     -3.48510752	    -13.76040058	      1.01835540	      0.97100459	      0.30942866	    -13.89069478	      4.65232101	      8.89012593	    -17.21718798	     12.27982849	      0.89053609	     14.06440942	     34.48129053	     -8.10090105	     -7.11714254	     -6.73041390	      8.33113507	     -7.42164411	      5.79533674	      6.74572868	      3.32897894	     14.43128935
      1.53400000	     -5.83583463	     -3.26641659	    -13.85484369	      1.02515885	      0.97058628	      0.30901120	    -13.86839056	      4.32368511	      8.83294394	    -17.69930829	     11.77485566	      0.87036357	     14.34672006	     34.40352361	     -7.87080212	     -7.07918165	     -7.03423996	      7.68821640	     -7.79220327	      5.95629695	      7.03073829	      3.11604972	     14.50455699
      1.53816667	     -5.87970270	     -3.06099885	    -13.93300555	      1.03199507	      0.97025937	      0.30855409	    -13.86440838	      4.00174971	      8.73709854	    -18.18773762	     11.17118247	      0.89275651	     14.43144547	     34.32309369	     -7.65132819	     -7.18172652	     -7.38707506	      7.10266608	     -7.86074394	      6.00204378	      7.30126288	      2.95230927	     14.51633041
      1.54233333	     -5.95975387	     -2.83919896	    -14.00824678	      1.03876385	      0.96990289	      0.30804277	    -13.77300403	      3.67706832	      8.64205791	    -18.75751664	     10.58608901	      0.88469431	     14.95291210	     34.25219515	     -7.39460405	     -7.01806513	     -7.65126641	      6.24468468	     -8.52119254	      6.29269231	      7.57949333	      2.76792140	     14.67381432
      1.54650000	     -5.99209788	     -2.59141978	    -14.05094637	      1.04562782	      0.96965133	      0.30753746	    -13.72186620	      3.32271077	      8.49194489	    -19.33114078	      9.96773817	      0.85971967	     15.05229126	     34.19044703	     -7.12173598	     -7.20267409	     -8.03329703	      5.62286845	     -8.52032080	      6.33922611	      7.84369815	      2.52275789	     14.64757656
      1.55066667	     -6.05901658	     -2.34873246	    -14.08644789	      1.05241626	      0.96938476	      0.30694885	    -13.59068936	      2.98182316	      8.31600349	    -19.97364519	      9.31657352	      0.86264727	     15.77881639	     34.13549774	     -6.82377160	     -7.04396359	     -8.32893676	      4.71947089	     -9.15058531	      6.70183452	      8.12494171	      2.30753660	     14.73470480
      1.55483333	     -6.04199355	     -2.07182624	    -14.09016601	      1.05928285	      0.96926709	      0.30636260	    -13.53742257	      2.59023878	      8.08153263	    -20.60467370	      8.54909805	      0.78754579	     19.88563656	     34.04829884	     -6.49480226	     -7.20966289	     -8.73833704	      4.04148915	     -9.18565716	      8.61603181	      8.32302824	      1.99163875	     14.67598507
      1.55900000	     -6.05604388	     -1.80591719	    -14.06927970	      1.06614199	      0.96915646	      0.30572169	    -13.42768546	      2.22644801	      7.82296320	    -21.28566981	      7.79995227	      0.77152719	     19.88910713	     34.01874828	     -6.17106492	     -7.35050715	     -9.19645987	      3.41482035	     -9.20229282	      8.60742338	      8.57033755	      1.72278292	     14.66331349
      1.56316667	     -6.07338251	     -1.49925939	    -14.02572526	      1.07298836	      0.96905275	      0.30502762	    -13.26865867	      1.82755688	      7.52509073	    -22.03697992	      7.10090220	      0.74005392	     19.99699908	     33.99374382	     -5.78079729	     -7.30995882	     -9.63581939	      2.68441230	     -9.57043467	      8.61773056	      8.82236830	      1.37699788	     14.63819536
